<svg width="32" height="32" viewBox="0 0 32 32" fill="none" xmlns="http://www.w3.org/2000/svg">
<g clip-path="url(#clip0_710_10435)">
<path d="M30.0766 13.754C29.9457 13.7327 29.8132 13.7229 29.6806 13.7246H7.10524L7.5975 13.4957C8.07867 13.2679 8.51641 12.958 8.89111 12.5798L15.2218 6.24913C16.0556 5.45321 16.1957 4.17283 15.5538 3.21543C14.8067 2.19521 13.3741 1.97369 12.3538 2.72074C12.2714 2.78113 12.193 2.84695 12.1194 2.91779L0.67151 14.3657C-0.223144 15.2594 -0.223932 16.709 0.669721 17.6037C0.670293 17.6042 0.670937 17.6049 0.67151 17.6055L12.1194 29.0534C13.0148 29.9462 14.4645 29.9442 15.3574 29.0489C15.4277 28.9784 15.4933 28.9034 15.5538 28.8244C16.1957 27.867 16.0556 26.5866 15.2218 25.7907L8.90256 19.4486C8.56663 19.1123 8.18041 18.8303 7.75777 18.6129L7.07089 18.3038H29.5546C30.7242 18.3472 31.7504 17.5302 31.9701 16.3805C32.1725 15.1324 31.3248 13.9564 30.0766 13.754Z" fill="#73818F"/>
</g>
<defs>
<clipPath id="clip0_710_10435">
<rect width="32" height="32" fill="white"/>
</clipPath>
</defs>
</svg>
