<svg id="Componente_37_12" data-name="Componente 37 – 12" xmlns="http://www.w3.org/2000/svg" width="28.001" height="28.001" viewBox="0 0 28.001 28.001">
  <g id="Icon">
    <path id="Icon.BG" d="M14,0A14,14,0,1,1,0,14,14,14,0,0,1,14,0Z" fill="#909096"/>
  </g>
  <path id="Subtração_7" data-name="Subtração 7" d="M2998,732.256h0c-.04-.048-4-4.827-4-7.609,0-2.561,1.316-4.113,3.611-4.257.078,0,.157-.007.234-.007a3.118,3.118,0,0,1,2.452,1.114,4.8,4.8,0,0,1,.99,3.15c0,2.761-3.154,7.412-3.289,7.608Zm-.284-9.593a1.5,1.5,0,1,0,1.5,1.5A1.5,1.5,0,0,0,2997.714,722.663Z" transform="translate(-2983.644 -712.781)" fill="none" stroke="#fff" stroke-width="1"/>
</svg>
