<svg xmlns="http://www.w3.org/2000/svg" width="114" height="27" viewBox="0 0 114 27">
  <g id="Grupo_526" data-name="Grupo 526" transform="translate(-1119 -25)">
    <g id="Grupo_525" data-name="Grupo 525" transform="translate(1119.01 25)">
      <rect id="Retângulo_1662" data-name="Retângulo 1662" width="114" height="27" rx="3" transform="translate(-0.01)" fill="#e7e7e7"/>
      <text id="Gerar_Relatório" data-name="Gerar Relatório" transform="translate(24.99 17)" fill="#909096" font-size="11" font-family="Poppins-Regular, Poppins"><tspan x="0" y="0">Gerar Relatório</tspan></text>
    </g>
    <g id="outline-description-24px" transform="translate(1125.763 30.513)">
      <g id="Bounding_Boxes">
        <path id="Caminho_2324" data-name="Caminho 2324" d="M0,0H12.765V15.975H0Z" fill="none"/>
      </g>
      <g id="Outline" transform="translate(0.783 1.4)">
        <g id="Grupo_47" data-name="Grupo 47">
          <rect id="Retângulo_27" data-name="Retângulo 27" width="5.6" height="1.4" transform="translate(2.717 9.099)" fill="#fff"/>
          <rect id="Retângulo_28" data-name="Retângulo 28" width="5.6" height="1.4" transform="translate(2.717 6.299)" fill="#fff"/>
          <path id="Caminho_2325" data-name="Caminho 2325" d="M11,2H5.4A1.365,1.365,0,0,0,4,3.318v10.54a1.358,1.358,0,0,0,1.393,1.318H13.8a1.365,1.365,0,0,0,1.4-1.318V5.953Zm2.8,11.858H5.4V3.318h4.9V6.611h3.5Z" transform="translate(-4 -2)" fill="#fff"/>
        </g>
      </g>
    </g>
  </g>
</svg>
