<svg width="26" height="22" viewBox="0 0 26 22" fill="none" xmlns="http://www.w3.org/2000/svg">
<path d="M23.5001 0.5H2.50008C1.21675 0.5 0.166748 1.55 0.166748 2.83333V16.8333C0.166748 18.1167 1.21675 19.1667 2.50008 19.1667H8.33341V20.3333C8.33341 20.975 8.85841 21.5 9.50008 21.5H16.5001C17.1417 21.5 17.6667 20.975 17.6667 20.3333V19.1667H23.5001C24.7834 19.1667 25.8334 18.1167 25.8334 16.8333V2.83333C25.8334 1.53833 24.7834 0.5 23.5001 0.5ZM22.3334 16.8333H3.66675C3.02508 16.8333 2.50008 16.3083 2.50008 15.6667V4C2.50008 3.35833 3.02508 2.83333 3.66675 2.83333H22.3334C22.9751 2.83333 23.5001 3.35833 23.5001 4V15.6667C23.5001 16.3083 22.9751 16.8333 22.3334 16.8333ZM17.6667 9.83333C17.6667 10.475 17.1417 11 16.5001 11H9.50008C8.85841 11 8.33341 10.475 8.33341 9.83333C8.33341 9.19167 8.85841 8.66667 9.50008 8.66667H16.5001C17.1417 8.66667 17.6667 9.19167 17.6667 9.83333Z" fill="#026197"/>
</svg>
