<svg xmlns="http://www.w3.org/2000/svg" width="15.508" height="15.508" viewBox="0 0 15.508 15.508">
  <g id="baseline-exit_to_app-24px" opacity="0.6">
    <path id="Caminho_252" data-name="Caminho 252" d="M0,0H15.508V15.508H0Z" fill="none"/>
    <path id="Caminho_253" data-name="Caminho 253" d="M7.581,11.135l.911.911,3.231-3.231L8.493,5.585,7.581,6.5,9.249,8.169H3V9.462H9.249ZM13.339,3H4.292A1.292,1.292,0,0,0,3,4.292V6.877H4.292V4.292h9.047v9.047H4.292V10.754H3v2.585a1.292,1.292,0,0,0,1.292,1.292h9.047a1.3,1.3,0,0,0,1.292-1.292V4.292A1.3,1.3,0,0,0,13.339,3Z" transform="translate(-1.061 -1.061)"/>
  </g>
</svg>
