<svg width="164" height="164" viewBox="0 0 164 164" fill="none" xmlns="http://www.w3.org/2000/svg">
<path d="M82.255 111.402C87.2698 111.402 91.3495 106.939 91.3495 101.453C91.3495 99.7242 90.0731 95.273 86.4761 88.4172C84.9744 85.5555 83.4765 83.0521 82.255 81.1721C81.0337 83.0524 79.5359 85.5559 78.0338 88.4172C74.4368 95.273 73.1604 99.7242 73.1604 101.453C73.1604 106.939 77.2402 111.402 82.255 111.402Z" fill="#36B390"/>
<path d="M11.4026 60.1535L11.4122 127.078C11.4128 132.852 15.7073 137.549 20.9854 137.549H71.6208L81.0916 157.518C82.8326 161.191 86.0451 163.383 89.6855 163.383H143.523C148.802 163.383 153.097 158.685 153.097 152.91V60.1451L156.367 52.4385H8.13843L11.4026 60.1535ZM70.6089 81.5658C72.2526 78.5617 74.0265 75.6581 75.6026 73.3907C78.0364 69.8901 79.7334 68.1125 82.2547 68.1125C84.776 68.1125 86.473 69.8901 88.9068 73.3907C90.4829 75.6581 92.2568 78.5617 93.9005 81.5658C97.1037 87.42 100.923 95.6223 100.923 101.452C100.923 112.714 92.5482 121.875 82.2547 121.875C71.9613 121.875 63.5869 112.714 63.5869 101.452C63.5869 95.6223 67.4057 87.42 70.6089 81.5658Z" fill="#36B390"/>
<path d="M146.739 5.23665C146.739 2.34462 144.595 0 141.952 0H122.167C119.524 0 117.381 2.34462 117.381 5.23665V10.4733H146.739V5.23665Z" fill="#36B390"/>
<path d="M159.163 20.9465H5.34698C2.70476 20.9483 0.563232 23.2922 0.563232 26.1832V36.7284C0.563232 39.6204 2.70636 41.9651 5.34985 41.9651H159.16C161.803 41.9651 163.946 39.6204 163.946 36.7284V26.1832C163.946 23.2922 161.805 20.9483 159.163 20.9465Z" fill="#36B390"/>
<path d="M47.1289 5.23665C47.1289 2.34462 44.9858 0 42.3423 0H22.5576C19.9141 0 17.771 2.34462 17.771 5.23665V10.4733H47.1289V5.23665Z" fill="#36B390"/>
</svg>
