<svg width="164" height="164" viewBox="0 0 164 164" fill="none" xmlns="http://www.w3.org/2000/svg">
<path fill-rule="evenodd" clip-rule="evenodd" d="M90.7431 110.867H61.5618C58.3417 110.867 55.727 113.481 55.727 116.702C55.727 119.923 58.3417 122.537 61.5618 122.537H90.7431C93.9631 122.537 96.5815 119.923 96.5815 116.702C96.5815 113.481 93.9631 110.867 90.7431 110.867Z" fill="#36B390"/>
<path fill-rule="evenodd" clip-rule="evenodd" d="M102.434 131.29H61.5849C58.3667 131.29 55.7515 133.904 55.7515 137.125C55.7515 140.346 58.3667 142.96 61.5849 142.96H102.434C105.658 142.96 108.273 140.346 108.273 137.125C108.273 133.904 105.658 131.29 102.434 131.29Z" fill="#36B390"/>
<path fill-rule="evenodd" clip-rule="evenodd" d="M32.4532 43.7634H17.8654C8.19667 43.7634 0.360107 51.5999 0.360107 61.2687V113.785C0.360107 123.453 8.19667 131.29 17.8654 131.29H32.4532V150.254C32.4532 153.735 33.8361 157.075 36.2986 159.538C38.761 162 42.1016 163.383 45.5822 163.383H118.521C122.002 163.383 125.342 162 127.805 159.538C130.267 157.075 131.65 153.735 131.65 150.254V131.29H146.238C155.907 131.29 163.743 123.453 163.743 113.785V61.2687C163.743 51.5999 155.907 43.7634 146.238 43.7634H131.65V13.129C131.65 9.64836 130.267 6.30774 127.805 3.84532C125.342 1.3829 122.002 0 118.521 0C102.037 0 62.0664 0 45.5822 0C42.1016 0 38.761 1.3829 36.2986 3.84532C33.8361 6.30774 32.4532 9.64836 32.4532 13.129V43.7634ZM118.521 151.713H45.5822C45.1942 151.713 44.8237 151.558 44.5494 151.287C44.2781 151.013 44.1235 150.642 44.1235 150.254V103.573C44.1235 103.185 44.2781 102.815 44.5494 102.54C44.8237 102.269 45.1942 102.114 45.5822 102.114H118.521C118.909 102.114 119.28 102.269 119.554 102.54C119.825 102.815 119.98 103.185 119.98 103.573V150.254C119.98 150.642 119.825 151.013 119.554 151.287C119.28 151.558 118.909 151.713 118.521 151.713ZM137.485 64.1862C140.706 64.1862 143.32 66.8004 143.32 70.0214C143.32 73.2423 140.706 75.8565 137.485 75.8565C134.264 75.8565 131.65 73.2423 131.65 70.0214C131.65 66.8004 134.264 64.1862 137.485 64.1862ZM119.98 43.7634V13.129C119.98 12.741 119.825 12.3704 119.554 12.0962C119.28 11.8248 118.909 11.6702 118.521 11.6702H45.5822C45.1942 11.6702 44.8237 11.8248 44.5494 12.0962C44.2781 12.3704 44.1235 12.741 44.1235 13.129V43.7634H119.98Z" fill="#36B390"/>
</svg>
