<svg width="165" height="164" viewBox="0 0 165 164" fill="none" xmlns="http://www.w3.org/2000/svg">
<path d="M1.74671 24.829C2.61793 21.2027 7.13518 19.9163 9.78554 22.567L27.4193 40.2104H40.9663V26.6634L23.3558 9.06207C20.7179 6.42414 21.9893 1.91164 25.5974 1.02797C33.9247 -1.01128 47.4366 -0.706826 57.8833 9.73639C67.0231 18.8763 69.9591 32.5191 65.6636 44.5982L119.552 98.4865C131.631 94.191 145.273 97.127 154.413 106.267C164.594 116.447 165.193 130.099 163.159 138.565C162.288 142.192 157.771 143.478 155.121 140.827L137.487 123.184H123.94V136.731L141.546 154.328C144.184 156.966 142.912 161.48 139.303 162.362C130.979 164.397 117.472 164.103 107.023 153.658C97.8834 144.518 94.9474 130.875 99.2429 118.796L45.3549 64.9076C33.2759 69.2031 19.6364 66.2671 10.4934 57.1272C0.312544 46.947 -0.287097 33.2952 1.74671 24.829Z" fill="#36B390"/>
<path d="M82.4531 115.547L41.6142 156.383C33.4414 164.556 20.7784 165.574 11.4917 159.428L48.3861 122.536C50.253 120.666 50.253 117.635 48.3861 115.764C46.5161 113.897 43.4843 113.897 41.6142 115.764L4.72302 152.659C-1.42338 143.372 -0.408556 130.709 7.76751 122.536L48.6031 81.6973L82.4531 115.547Z" fill="#36B390"/>
<path d="M163.645 13.6968L150.105 40.775C149.403 42.1824 148.056 43.1525 146.499 43.3759L124.386 46.5321L102.762 68.1564L95.9934 61.3876L117.614 39.7666L120.774 17.6509C120.997 16.0935 121.967 14.7468 123.375 14.0447L150.453 0.503997C152.294 -0.415098 154.522 -0.0544806 155.977 1.40075L162.749 8.17269C164.204 9.62793 164.564 11.8555 163.645 13.6968Z" fill="#36B390"/>
</svg>
