<svg width="24" height="22" viewBox="0 0 24 22" fill="none" xmlns="http://www.w3.org/2000/svg">
<path d="M20.1666 6.33333H3.83325C1.89659 6.33333 0.333252 7.89667 0.333252 9.83333V14.5C0.333252 15.7833 1.38325 16.8333 2.66659 16.8333H4.99992V19.1667C4.99992 20.45 6.04992 21.5 7.33325 21.5H16.6666C17.9499 21.5 18.9999 20.45 18.9999 19.1667V16.8333H21.3333C22.6166 16.8333 23.6666 15.7833 23.6666 14.5V9.83333C23.6666 7.89667 22.1033 6.33333 20.1666 6.33333ZM15.4999 19.1667H8.49992C7.85825 19.1667 7.33325 18.6417 7.33325 18V13.3333H16.6666V18C16.6666 18.6417 16.1416 19.1667 15.4999 19.1667ZM20.1666 11C19.5249 11 18.9999 10.475 18.9999 9.83333C18.9999 9.19167 19.5249 8.66667 20.1666 8.66667C20.8083 8.66667 21.3333 9.19167 21.3333 9.83333C21.3333 10.475 20.8083 11 20.1666 11ZM17.8333 0.5H6.16659C5.52492 0.5 4.99992 1.025 4.99992 1.66667V4C4.99992 4.64167 5.52492 5.16667 6.16659 5.16667H17.8333C18.4749 5.16667 18.9999 4.64167 18.9999 4V1.66667C18.9999 1.025 18.4749 0.5 17.8333 0.5Z" fill="#FFFFFF"/>
</svg>
