<svg width="12" height="12" viewBox="0 0 12 12" fill="none" xmlns="http://www.w3.org/2000/svg">
<path d="M1.04624 7.56006C1.26506 7.59185 1.47389 7.67259 1.65718 7.79627C1.84047 7.91995 1.99349 8.08339 2.10486 8.27441C2.21623 8.46543 2.28307 8.67911 2.30041 8.89954C2.31775 9.11998 2.28513 9.34148 2.20499 9.54757C2.15405 9.68229 2.14655 9.82959 2.18353 9.96879C2.22052 10.108 2.30014 10.2321 2.41124 10.3238C2.90173 10.7357 3.46003 11.0592 4.06124 11.2801C4.19815 11.3309 4.34761 11.3373 4.48834 11.2982C4.62906 11.2592 4.75388 11.1767 4.84499 11.0626C4.98214 10.8872 5.15742 10.7454 5.35754 10.6478C5.55766 10.5503 5.77736 10.4996 5.99999 10.4996C6.22262 10.4996 6.44233 10.5503 6.64245 10.6478C6.84257 10.7454 7.01785 10.8872 7.15499 11.0626C7.24611 11.1767 7.37092 11.2592 7.51165 11.2982C7.65238 11.3373 7.80184 11.3309 7.93874 11.2801C8.49387 11.0762 9.0129 10.785 9.47624 10.4176C9.59304 10.3251 9.67716 10.1977 9.7163 10.0539C9.75544 9.91021 9.74753 9.75773 9.69374 9.61882C9.60721 9.40728 9.57146 9.17841 9.58935 8.95057C9.60725 8.72272 9.67829 8.50224 9.79679 8.30681C9.91529 8.11138 10.0779 7.94644 10.2717 7.82523C10.4655 7.70401 10.6849 7.62989 10.9125 7.60881C11.0602 7.59302 11.199 7.5302 11.3084 7.42961C11.4177 7.32902 11.4919 7.19598 11.52 7.05006C11.5898 6.70443 11.625 6.35268 11.625 6.00006C11.6255 5.70486 11.6017 5.41011 11.5537 5.11881C11.5299 4.96823 11.4571 4.82969 11.3466 4.72462C11.2361 4.61956 11.0941 4.55382 10.9425 4.53756C10.7099 4.51574 10.486 4.43852 10.2894 4.31237C10.0927 4.18623 9.92922 4.01482 9.81246 3.8125C9.69569 3.61019 9.62909 3.38284 9.61822 3.1495C9.60735 2.91616 9.65254 2.68361 9.74999 2.47131C9.81377 2.33322 9.82959 2.17779 9.79494 2.02968C9.76029 1.88157 9.67716 1.74928 9.55874 1.65381C9.0712 1.24942 8.51828 0.931108 7.92374 0.712564C7.84771 0.686231 7.76794 0.672302 7.68749 0.671314C7.57718 0.671554 7.46853 0.698238 7.37066 0.749132C7.27279 0.800026 7.18854 0.873644 7.12499 0.963814C6.99134 1.15855 6.81217 1.31771 6.60305 1.4275C6.39393 1.53729 6.16118 1.59438 5.92499 1.59381C5.69615 1.59352 5.47053 1.53981 5.26611 1.43695C5.06168 1.33408 4.8841 1.18491 4.74749 1.00131C4.65663 0.87917 4.52792 0.790506 4.38141 0.749131C4.2349 0.707757 4.07883 0.715996 3.93749 0.772563C3.39386 0.991355 2.88776 1.29375 2.43749 1.66881C2.32439 1.76233 2.24385 1.8893 2.20746 2.03148C2.17108 2.17366 2.18071 2.32371 2.23499 2.46006C2.32319 2.66887 2.36165 2.89532 2.34733 3.12154C2.33301 3.34776 2.2663 3.56755 2.15247 3.76357C2.03864 3.95959 1.88081 4.12646 1.69143 4.25103C1.50205 4.37559 1.28631 4.45443 1.06124 4.48131C0.915298 4.5015 0.779568 4.56762 0.673716 4.6701C0.567863 4.77258 0.497386 4.9061 0.472493 5.05131C0.412267 5.3641 0.379642 5.68157 0.374993 6.00006C0.374921 6.33601 0.406308 6.67122 0.468743 7.00131C0.494062 7.14333 0.563489 7.27375 0.66716 7.37405C0.77083 7.47436 0.903473 7.53944 1.04624 7.56006ZM4.12499 6.00006C4.12499 5.62922 4.23496 5.26671 4.44099 4.95837C4.64701 4.65003 4.93985 4.4097 5.28246 4.26779C5.62507 4.12588 6.00207 4.08874 6.36579 4.16109C6.7295 4.23344 7.06359 4.41202 7.32582 4.67424C7.58804 4.93646 7.76662 5.27056 7.83896 5.63427C7.91131 5.99798 7.87418 6.37498 7.73227 6.7176C7.59035 7.06021 7.35003 7.35304 7.04169 7.55907C6.73334 7.7651 6.37083 7.87506 5.99999 7.87506C5.50271 7.87506 5.0258 7.67752 4.67417 7.32589C4.32254 6.97426 4.12499 6.49735 4.12499 6.00006Z" fill="#73818F"/>
</svg>
