<svg id="outline-settings_remote-24px" xmlns="http://www.w3.org/2000/svg" width="15.216" height="24" viewBox="0 0 15.216 24">
  <g id="Bounding_Boxes" transform="translate(0.287)">
    <path id="Caminho_2461" data-name="Caminho 2461" d="M0,0H14.642V24H0Z" fill="none"/>
  </g>
  <g id="Grupo_123" data-name="Grupo 123" transform="translate(0 1.043)">
    <g id="Outline">
      <g id="Grupo_93" data-name="Grupo 93">
        <path id="Caminho_2462" data-name="Caminho 2462" d="M14.708,9H8.958A.983.983,0,0,0,8,10V22a.983.983,0,0,0,.958,1h5.749a.983.983,0,0,0,.958-1V10A.983.983,0,0,0,14.708,9Zm-.958,12H9.916V11h3.833Z" transform="translate(-4.22 -1.043)" fill="#909096"/>
        <circle id="Elipse_88" data-name="Elipse 88" cx="1" cy="1" r="1" transform="translate(6.635 10.957)" fill="#909096"/>
        <path id="Caminho_2463" data-name="Caminho 2463" d="M7.05,6.05,8.412,7.46a4.737,4.737,0,0,1,6.841,0l1.362-1.41a6.6,6.6,0,0,0-9.566,0Z" transform="translate(-4.22 -0.828)" fill="#909096"/>
        <path id="Caminho_2464" data-name="Caminho 2464" d="M11.833,0A10.615,10.615,0,0,0,4.22,3.22L5.6,4.63a8.678,8.678,0,0,1,12.457.01l1.38-1.41A10.545,10.545,0,0,0,11.833,0Z" transform="translate(-4.22)" fill="#909096"/>
      </g>
    </g>
  </g>
</svg>
