<svg width="12" height="12" viewBox="0 0 12 12" fill="none" xmlns="http://www.w3.org/2000/svg">
<path d="M8.40562 2.74391V0.720711C8.40562 0.398173 8.14182 0.134277 7.81918 0.134277H0.586439C0.263897 0.134277 0 0.398173 0 0.720711V1.10189V8.74508V9.00907C0 9.224 0.127062 9.42925 0.312767 9.52699L4.7697 11.8337C4.96518 11.9315 5.19976 11.7947 5.19976 11.5698V9.32184H7.81918C8.14182 9.32184 8.40562 9.05804 8.40562 8.7354V5.52957H7.23274V7.85575C7.23274 8.02191 7.10568 8.14897 6.93952 8.14897H5.20953V5.13861V3.2327V3.17406C5.20953 2.95903 5.08247 2.75378 4.89676 2.65604L2.26756 1.30724H6.93952C7.10568 1.30724 7.23274 1.4343 7.23274 1.60046V2.75378H8.40562V2.74391Z" fill="#73818F"/>
<path d="M9.91063 1.78592L11.8166 3.69183C12.0609 3.93618 12.0609 4.29781 11.8166 4.54216L9.91063 6.44807C9.66628 6.69242 9.29477 6.70229 9.05042 6.45794C8.81594 6.22347 8.84517 5.83241 9.07007 5.59784L9.93008 4.74751H6.59725C6.43119 4.74751 6.26493 4.67909 6.15742 4.55203C5.88375 4.25882 5.95217 3.7408 6.30403 3.54532C6.392 3.49645 6.49951 3.46713 6.59725 3.46713H9.93018C9.93018 3.46713 9.07994 2.6168 9.07016 2.6168C8.84526 2.392 8.81594 1.99127 9.05052 1.76647C9.28509 1.5319 9.66628 1.54157 9.91063 1.78592Z" fill="#73818F"/>
</svg>
