<svg width="12" height="12" viewBox="0 0 12 12" fill="none" xmlns="http://www.w3.org/2000/svg">
<path d="M5.9991 0C7.71339 0 9.11475 1.40135 9.11475 3.11565C9.11475 4.82995 7.71339 6.2313 5.9991 6.2313C4.2848 6.2313 2.88344 4.82995 2.88344 3.11565C2.88344 1.40135 4.2848 0 5.9991 0Z" fill="#73818F"/>
<path d="M0.652106 8.72102C0.733747 8.51693 0.842574 8.32646 0.965022 8.14958C1.59088 7.2244 2.55685 6.61216 3.64528 6.4625C3.78133 6.44891 3.93099 6.47609 4.03984 6.55773C4.61127 6.9795 5.29153 7.19719 5.99903 7.19719C6.70653 7.19719 7.3868 6.9795 7.95823 6.55773C8.06708 6.47609 8.21674 6.43529 8.35279 6.4625C9.44122 6.61216 10.4208 7.2244 11.033 8.14958C11.1555 8.32646 11.2643 8.53055 11.346 8.72102C11.3868 8.80266 11.3732 8.89789 11.3324 8.97953C11.2235 9.17 11.0875 9.3605 10.965 9.52375C10.7746 9.78227 10.5705 10.0135 10.3392 10.2312C10.1487 10.4217 9.93101 10.5986 9.71331 10.7754C8.63849 11.5782 7.34596 11.9999 6.01263 11.9999C4.67929 11.9999 3.38677 11.5782 2.31195 10.7754C2.09427 10.6122 1.87659 10.4217 1.68609 10.2312C1.46841 10.0135 1.25073 9.78224 1.06023 9.52375C0.92419 9.34688 0.801716 9.17 0.692887 8.97953C0.624893 8.89789 0.611299 8.80263 0.652106 8.72102Z" fill="#73818F"/>
</svg>
