<svg width="26" height="26" viewBox="0 0 26 26" fill="none" xmlns="http://www.w3.org/2000/svg">
<path fill-rule="evenodd" clip-rule="evenodd" d="M3.25 26C1.4625 26 0.0162478 24.83 0.016248 23.4L0 2.6C1.33944e-07 1.17 1.44625 -1.4585e-07 3.23375 0L22.75 1.59242e-06C24.5375 1.73827e-06 26 1.17 26 2.6L26 17.121C26 17.81 25.6588 18.473 25.0413 18.967L17.2087 25.233C16.5912 25.727 15.7625 26 14.9012 26L3.25 26ZM6.19047 2.6C5.1648 2.6 4.33333 3.37604 4.33333 4.33333L4.33333 14.7333C4.33333 15.6906 5.1648 16.4667 6.19047 16.4667H19.8095C20.8352 16.4667 21.6667 15.6906 21.6667 14.7333V4.33333C21.6667 3.37604 20.8352 2.6 19.8095 2.6L6.19047 2.6Z" fill="#FFFFFF"/>
<path d="M16.5038 7.22213L13.4395 4.36791C13.1981 4.14258 12.8081 4.14258 12.5667 4.36791L9.49619 7.22213C8.53047 8.12347 8.04762 9.32524 8.04762 10.4808C8.04762 11.6364 8.53047 12.8555 9.49619 13.7568C10.4619 14.6581 11.731 15.1146 13 15.1146C14.269 15.1146 15.5381 14.6581 16.5038 13.7568C17.4695 12.8555 17.9524 11.6364 17.9524 10.4808C17.9524 9.32524 17.4695 8.12347 16.5038 7.22213ZM9.28571 10.6888C9.2919 9.53324 9.66952 8.79947 10.3752 8.14658L13 5.6448L15.6248 8.17547C16.3305 8.82258 16.7081 9.53324 16.7143 10.6888H9.28571Z" fill="#FFFFFF"/>
</svg>
