<svg id="Layer_1" data-name="Layer 1" xmlns="http://www.w3.org/2000/svg" width="161.066" height="30.045" viewBox="0 0 161.066 30.045">
  <g id="Grupo_489" data-name="Grupo 489">
    <g id="Grupo_487" data-name="Grupo 487">
      <rect id="Retângulo_1636" data-name="Retângulo 1636" width="5.514" height="5.514" transform="translate(4.212 5.514)" fill="#fff"/>
      <rect id="Retângulo_1637" data-name="Retângulo 1637" width="3.408" height="3.408" transform="translate(4.212)" fill="#fff"/>
      <rect id="Retângulo_1638" data-name="Retângulo 1638" width="2.106" height="2.106" transform="translate(0 5.514)" fill="#fff"/>
      <path id="Caminho_4657" data-name="Caminho 4657" d="M20.614,16.18v5.514H31.377V35.2h-13.5V24.434H12.36V40.711H36.891V16.18Z" transform="translate(-8.148 -10.666)" fill="#fff"/>
      <rect id="Retângulo_1639" data-name="Retângulo 1639" width="8.019" height="8.019" transform="translate(12.466 13.768)" fill="#fff"/>
    </g>
    <g id="Grupo_488" data-name="Grupo 488" transform="translate(33.099 11.4)">
      <path id="Caminho_4658" data-name="Caminho 4658" d="M109.873,39.729a7.08,7.08,0,0,0-1.673-.46,15.105,15.105,0,0,0-2.345-.16h-.436c-.181,0-.389.007-.634.02h-.259a1.086,1.086,0,0,0-.153.01.819.819,0,0,1-.126.01c-.389.014-.712.02-.988.02h-.613a7.73,7.73,0,0,1-2.778-.375A1.5,1.5,0,0,1,98.8,37.306a1.564,1.564,0,0,1,.535-1.411,2,2,0,0,1,.63-.252,4.391,4.391,0,0,1,1.012-.1h6.063a4.676,4.676,0,0,1,2,.334,1.283,1.283,0,0,1,.634.624,2.555,2.555,0,0,1,.215.985.178.178,0,0,0,.2.2h1.288c.068,0,.181-.027.181-.2,0-2.433-1.442-3.667-4.28-3.667h-6.261c-2.59,0-3.9,1.166-3.9,3.469a2.991,2.991,0,0,0,1.707,2.968,9.242,9.242,0,0,0,3.8.6h.515c.215,0,.46-.007.733-.02h.259a.824.824,0,0,0,.143-.01.573.573,0,0,1,.092-.01h.675q.358-.02.613-.02h.477a15.723,15.723,0,0,1,1.66.078,3.707,3.707,0,0,1,1.138.276A1.594,1.594,0,0,1,110,42.756a2.707,2.707,0,0,1-.157.975,1.251,1.251,0,0,1-.538.634,2.487,2.487,0,0,1-.74.273,5.425,5.425,0,0,1-1.121.1h-5.685a6.479,6.479,0,0,1-1.2-.1,3.166,3.166,0,0,1-.821-.256,1.292,1.292,0,0,1-.634-.613,2.507,2.507,0,0,1-.215-.992.2.2,0,0,0-.218-.218H97.42c-.13,0-.2.078-.2.218a3.368,3.368,0,0,0,1.223,2.8,4.471,4.471,0,0,0,2.917.862H107.5a8.56,8.56,0,0,0,1.82-.17,3.082,3.082,0,0,0,1.254-.552h0a3.62,3.62,0,0,0,1.084-2.924,3.15,3.15,0,0,0-1.786-3.067Z" transform="translate(-97.12 -33.694)" fill="#fff"/>
      <path id="Caminho_4659" data-name="Caminho 4659" d="M147.339,33.83h-.971c-.075,0-.2.031-.2.239V46.232c0,.14.072.218.2.218h.971c.068,0,.181-.027.181-.218V34.069c0-.208-.112-.239-.181-.239Z" transform="translate(-129.454 -33.7)" fill="#fff"/>
      <path id="Caminho_4660" data-name="Caminho 4660" d="M170.7,33.823h-1.247a.216.216,0,0,0-.239.239V44.388l-8.806-10.476a.252.252,0,0,0-.167-.092h-2.754c-.14,0-.218.085-.218.239V46.222a.2.2,0,0,0,.218.218h1.247a.2.2,0,0,0,.218-.218V35.231h.337l9.471,11.134c.017.037.055.078.153.078H170.7a.2.2,0,0,0,.218-.218V34.062c0-.153-.078-.239-.218-.239Z" transform="translate(-136.771 -33.694)" fill="#fff"/>
      <path id="Caminho_4661" data-name="Caminho 4661" d="M218.783,42.444l-.092-.075a.057.057,0,0,0-.058-.037h-1.268a.2.2,0,0,0-.218.218v.058a1.55,1.55,0,0,1-.791,1.568,4.845,4.845,0,0,1-2.062.331H209.68c-1.605,0-2.648-.262-3.1-.777a2.791,2.791,0,0,1-.419-1.179,12.728,12.728,0,0,1-.147-2.144c0-.8.007-1.472.02-1.99a6.076,6.076,0,0,1,.1-1.114,2.286,2.286,0,0,1,.951-1.656,4.092,4.092,0,0,1,1.128-.351,9.848,9.848,0,0,1,1.806-.136H214.3c1.878,0,2.832.648,2.832,1.919v.041a.2.2,0,0,0,.218.218H218.6c.13,0,.2-.078.2-.218v-.041a3.287,3.287,0,0,0-1.135-2.726,5.352,5.352,0,0,0-3.364-.9h-4.161c-2.219,0-3.756.4-4.563,1.2l-.072.068h.024c-.777.828-1.172,2.352-1.172,4.536a26.39,26.39,0,0,0,.181,3.871,3.91,3.91,0,0,0,.532,1.39,3.365,3.365,0,0,0,.934.954,4.55,4.55,0,0,0,1.568.549,13.007,13.007,0,0,0,2.256.17h4.5a5.916,5.916,0,0,0,3.214-.7,3.392,3.392,0,0,0,1.285-2.945.16.16,0,0,0-.031-.109Z" transform="translate(-167.806 -33.45)" fill="#fff"/>
      <path id="Caminho_4662" data-name="Caminho 4662" d="M262.179,41.257H255.4v5.051c0,.119-.065.177-.2.177h-1.329a.156.156,0,0,1-.177-.177V34.148c0-.133.058-.2.177-.2h8.3a7.425,7.425,0,0,1,1.922.218,2.932,2.932,0,0,1,1.288.675,3.062,3.062,0,0,1,.712,1.237,6.125,6.125,0,0,1,.259,1.891q0,3.287-4.178,3.289Zm2.495-3.964a1.933,1.933,0,0,0-.177-.872,1.233,1.233,0,0,0-.576-.556,2.851,2.851,0,0,0-.733-.208,7.227,7.227,0,0,0-1.07-.068H255.4v4.021h6.714a4.638,4.638,0,0,0,1.8-.259v.02a1.226,1.226,0,0,0,.576-.576,2.066,2.066,0,0,0,.177-.893V37.29Z" transform="translate(-200.337 -33.78)" fill="#fff"/>
      <path id="Caminho_4663" data-name="Caminho 4663" d="M309.636,41.693a3.048,3.048,0,0,0-.249-.872,2.318,2.318,0,0,0-1.128-1.169,1.743,1.743,0,0,0,.675-.9,4.277,4.277,0,0,0,.218-1.455q0-3.348-4.219-3.347h-8.8c-.119,0-.177.065-.177.2V46.311a.156.156,0,0,0,.177.177h1.268a.156.156,0,0,0,.177-.177V35.674h7.685c1.52,0,2.277.569,2.277,1.7s-.787,1.762-2.358,1.762h-5.794v1.724h6.23a4.855,4.855,0,0,1,1.3.15,1.655,1.655,0,0,1,.821.484,2.186,2.186,0,0,1,.317.722,4.378,4.378,0,0,1,.119,1.1c0,.133-.007.317-.02.556s-.034.528-.058.872c-.041.7-.058,1.22-.058,1.564a.156.156,0,0,0,.177.177h1.346c.092,0,.14-.058.14-.177V42.749a7.91,7.91,0,0,0-.068-1.05Z" transform="translate(-228.195 -33.78)" fill="#fff"/>
      <path id="Caminho_4664" data-name="Caminho 4664" d="M343.747,46.488a.156.156,0,0,1-.177-.177V34.148c0-.133.058-.2.177-.2h10.578c.106,0,.16.065.16.2v1.247c0,.133-.055.2-.16.2h-9.151v3.626h8.854c.106,0,.16.065.16.2v1.247c0,.133-.055.2-.16.2h-8.854v4h9.151c.106,0,.16.058.16.177v1.268c0,.119-.055.177-.16.177H343.747Z" transform="translate(-259.58 -33.78)" fill="#fff"/>
      <path id="Caminho_4665" data-name="Caminho 4665" d="M394.33,45.782a3,3,0,0,1-1.237.545,8.511,8.511,0,0,1-1.813.167h-6.141a4.418,4.418,0,0,1-2.893-.852,3.321,3.321,0,0,1-1.21-2.774c0-.119.051-.177.16-.177h1.247a.156.156,0,0,1,.177.177,2.52,2.52,0,0,0,.218,1.009,1.346,1.346,0,0,0,.654.634,3.338,3.338,0,0,0,.832.259,6.6,6.6,0,0,0,1.21.1h5.685a5.5,5.5,0,0,0,1.128-.1,2.544,2.544,0,0,0,.753-.276,1.269,1.269,0,0,0,.556-.654,2.775,2.775,0,0,0,.16-.992,1.624,1.624,0,0,0-1.091-1.643,3.78,3.78,0,0,0-1.148-.276,15.7,15.7,0,0,0-1.663-.078h-.474q-.256,0-.613.02h-.675a.606.606,0,0,0-.1.01.837.837,0,0,1-.14.01h-.259c-.276.014-.521.02-.733.02h-.515a9.216,9.216,0,0,1-3.783-.593,2.945,2.945,0,0,1-1.684-2.931q0-3.425,3.861-3.428h6.261q4.238,0,4.24,3.626c0,.106-.048.16-.14.16h-1.288c-.106,0-.157-.051-.157-.16a2.549,2.549,0,0,0-.218-1,1.337,1.337,0,0,0-.654-.644,4.682,4.682,0,0,0-2.021-.337H384.76a4.455,4.455,0,0,0-1.019.1,2.04,2.04,0,0,0-.644.259,1.605,1.605,0,0,0-.556,1.445,1.55,1.55,0,0,0,1.091,1.527,7.733,7.733,0,0,0,2.795.375h.613q.414,0,.992-.02a.583.583,0,0,0,.129-.01,1,1,0,0,1,.15-.01h.259q.358-.02.634-.02h.436a14.981,14.981,0,0,1,2.338.16,6.839,6.839,0,0,1,1.663.457A3.1,3.1,0,0,1,395.4,42.9a3.573,3.573,0,0,1-1.07,2.893Z" transform="translate(-284.214 -33.786)" fill="#fff"/>
      <path id="Caminho_4666" data-name="Caminho 4666" d="M443.56,45.782a3,3,0,0,1-1.237.545,8.511,8.511,0,0,1-1.813.167h-6.141a4.418,4.418,0,0,1-2.893-.852,3.321,3.321,0,0,1-1.21-2.774c0-.119.051-.177.16-.177h1.247a.156.156,0,0,1,.177.177,2.52,2.52,0,0,0,.218,1.009,1.346,1.346,0,0,0,.654.634,3.338,3.338,0,0,0,.832.259,6.6,6.6,0,0,0,1.21.1h5.685a5.5,5.5,0,0,0,1.128-.1,2.544,2.544,0,0,0,.753-.276,1.269,1.269,0,0,0,.556-.654,2.775,2.775,0,0,0,.16-.992,1.624,1.624,0,0,0-1.091-1.643,3.78,3.78,0,0,0-1.148-.276,15.7,15.7,0,0,0-1.663-.078h-.474q-.256,0-.613.02h-.675a.606.606,0,0,0-.1.01.837.837,0,0,1-.14.01h-.259c-.276.014-.521.02-.733.02h-.515a9.216,9.216,0,0,1-3.783-.593,2.945,2.945,0,0,1-1.684-2.931q0-3.425,3.861-3.428h6.26q4.238,0,4.24,3.626c0,.106-.048.16-.14.16H443.1c-.106,0-.157-.051-.157-.16a2.55,2.55,0,0,0-.218-1,1.337,1.337,0,0,0-.654-.644,4.682,4.682,0,0,0-2.021-.337H433.99a4.455,4.455,0,0,0-1.019.1,2.041,2.041,0,0,0-.644.259,1.605,1.605,0,0,0-.555,1.445,1.55,1.55,0,0,0,1.091,1.527,7.733,7.733,0,0,0,2.795.375h.613q.414,0,.992-.02a.584.584,0,0,0,.13-.01,1,1,0,0,1,.15-.01h.259q.358-.02.634-.02h.436a14.981,14.981,0,0,1,2.338.16,6.839,6.839,0,0,1,1.663.457,3.1,3.1,0,0,1,1.762,3.03,3.573,3.573,0,0,1-1.07,2.893Z" transform="translate(-316.666 -33.786)" fill="#fff"/>
    </g>
  </g>
</svg>
