<svg width="40" height="36" viewBox="0 0 40 36" fill="none" xmlns="http://www.w3.org/2000/svg">
<path d="M37.3843 0.292969H19.2506C18.928 0.292969 18.6666 0.554452 18.6666 0.876984C18.6666 1.19952 18.928 1.461 19.2506 1.461H37.3843C38.1086 1.461 38.6979 2.05023 38.6979 2.77457V27.792C38.6979 28.5163 38.1086 29.1056 37.3843 29.1056H19.2506C18.928 29.1056 18.6666 29.3671 18.6666 29.6896C18.6666 30.0122 18.928 30.2736 19.2506 30.2736H24.2582V32.308H19.2506C18.928 32.308 18.6666 32.5695 18.6666 32.892C18.6666 33.2145 18.928 33.476 19.2506 33.476H24.4612L25.0575 34.8312H19.2507H12.7642C12.4417 34.8312 12.1802 35.0927 12.1802 35.4152C12.1802 35.7378 12.4417 35.9993 12.7642 35.9993H19.2507H25.9525H27.4009C27.7234 35.9993 27.9849 35.7378 27.9849 35.4152C27.9849 35.0927 27.7234 34.8312 27.4009 34.8312H26.3336L25.4263 32.7692V30.2736H37.3843C38.7527 30.2736 39.8659 29.1603 39.8659 27.7919V2.77457C39.8659 1.40626 38.7526 0.292969 37.3843 0.292969V0.292969Z" fill="#0096D6"/>
<path d="M19.2508 24.5823C18.9282 24.5823 18.6667 24.8438 18.6667 25.1663C18.6667 25.4889 18.9282 25.7503 19.2508 25.7503H36.9459C37.2685 25.7503 37.53 25.4889 37.53 25.1663V3.21195C37.53 2.88941 37.2685 2.62793 36.9459 2.62793H35.1232C34.8007 2.62793 34.5392 2.88941 34.5392 3.21195C34.5392 3.53448 34.8007 3.79596 35.1232 3.79596H36.3619V24.5823H19.2508Z" fill="#0096D6"/>
<path d="M32.6344 2.62793H19.2508C18.9282 2.62793 18.6667 2.88941 18.6667 3.21194C18.6667 3.53448 18.9282 3.79596 19.2508 3.79596H32.6344C32.9569 3.79596 33.2184 3.53448 33.2184 3.21194C33.2184 2.88941 32.9569 2.62793 32.6344 2.62793V2.62793Z" fill="#0096D6"/>
<path d="M20.0263 28.1547C20.4546 28.1547 20.8019 27.8074 20.8019 27.3791C20.8019 26.9508 20.4546 26.6035 20.0263 26.6035C19.598 26.6035 19.2507 26.9508 19.2507 27.3791C19.2507 27.8074 19.598 28.1547 20.0263 28.1547Z" fill="#0096D6"/>
<path d="M13.1958 30.863C13.1958 31.4597 13.6812 31.9451 14.2779 31.9451H16.6515C16.9741 31.9451 17.2356 31.6836 17.2356 31.361C17.2356 31.0385 16.9741 30.777 16.6515 30.777H14.3638V29.0976C14.3638 28.8126 14.1582 28.5693 13.8772 28.5217C12.0003 28.2038 10.2599 27.4828 8.70458 26.3788C8.47229 26.214 8.15498 26.2407 7.95361 26.4422L6.7658 27.63L4.451 25.3152L5.63881 24.1273C5.84018 23.926 5.86696 23.6086 5.70212 23.3763C4.59825 21.8211 3.87726 20.0808 3.55925 18.2038C3.51167 17.9229 3.26833 17.7173 2.98341 17.7173H1.30402V14.4437H2.98364C3.26856 14.4437 3.5119 14.2381 3.55948 13.9572C3.87742 12.0801 4.59841 10.3398 5.70235 8.78465C5.8672 8.55237 5.84049 8.23505 5.63904 8.0336L4.45123 6.8458L6.76603 4.53107L7.95384 5.71888C8.15521 5.92025 8.47253 5.94703 8.70489 5.78219C10.2602 4.67824 12.0004 3.95726 13.8775 3.63932C14.1583 3.59174 14.364 3.3484 14.364 3.06348V1.38385H16.6518C16.9743 1.38385 17.2358 1.12237 17.2358 0.799836C17.2358 0.477304 16.9743 0.21582 16.6518 0.21582H14.2781C13.6814 0.21582 13.196 0.701254 13.196 1.29796V2.57937C11.5085 2.92954 9.8807 3.60389 8.43764 4.55069L7.53109 3.64438C7.32669 3.43997 7.05501 3.32745 6.76588 3.32745C6.47683 3.32745 6.20507 3.43997 6.00074 3.64438L3.56454 6.08066C3.14265 6.50255 3.14265 7.18904 3.56454 7.61101L4.47086 8.51732C3.52405 9.96039 2.84971 11.5882 2.49953 13.2756H1.21813C0.62142 13.2756 0.135986 13.7612 0.135986 14.3578V17.8032C0.135986 18.3999 0.62142 18.8853 1.21813 18.8853H2.49953C2.84971 20.5729 3.52405 22.2006 4.47086 23.6436L3.56454 24.55C3.14265 24.9719 3.14265 25.6584 3.56454 26.0804L6.00082 28.5167C6.20523 28.7211 6.47691 28.8336 6.76596 28.8336C7.05501 28.8336 7.32677 28.7211 7.53117 28.5167L8.43749 27.6103C9.88063 28.5571 11.5084 29.2315 13.1959 29.5817V30.863H13.1958Z" fill="#0096D6"/>
<path d="M16.0003 6.57916C16.3228 6.57916 16.5843 6.31768 16.5843 5.99515C16.5843 5.67262 16.3228 5.41113 16.0003 5.41113C10.1177 5.41113 5.33179 10.197 5.33179 16.0796C5.33179 18.2396 5.97451 20.3206 7.19059 22.0975C7.30373 22.2629 7.4868 22.3518 7.67306 22.3518C7.78667 22.3518 7.90153 22.3187 8.00237 22.2497C8.26853 22.0676 8.33666 21.7041 8.15453 21.4379C7.072 19.8561 6.49982 18.0033 6.49982 16.0796C6.49974 10.8411 10.7616 6.57916 16.0003 6.57916V6.57916Z" fill="#0096D6"/>
<path d="M8.96245 24.0979C10.9087 25.8078 13.4083 26.7496 16.0007 26.7496C16.3232 26.7496 16.5847 26.4881 16.5847 26.1656C16.5847 25.843 16.3232 25.5815 16.0007 25.5815C13.6921 25.5815 11.4664 24.743 9.73335 23.2205C9.49102 23.0076 9.122 23.0314 8.90918 23.2738C8.69637 23.5161 8.72012 23.885 8.96245 24.0979V24.0979Z" fill="#0096D6"/>
<path d="M32.8358 8.15941V6.75559C32.8358 6.18123 32.3685 5.71387 31.7941 5.71387H30.3902C29.8159 5.71387 29.3486 6.18116 29.3486 6.75559V6.87349H24.3446C24.1897 6.87349 24.0411 6.935 23.9317 7.04457L21.3242 9.652H12.7642C12.4417 9.652 12.1802 9.91348 12.1802 10.236C12.1802 10.5585 12.4417 10.82 12.7642 10.82H21.5661C21.721 10.82 21.8695 10.7585 21.979 10.649L24.5864 8.04152H29.3485V8.15941C29.3485 8.73377 29.8158 9.20106 30.3902 9.20106H31.7941C32.3685 9.20114 32.8358 8.73385 32.8358 8.15941V8.15941ZM31.6678 8.03311H30.5165V6.8819H31.6678V8.03311Z" fill="#0096D6"/>
<path d="M30.0894 15.4046H31.2252C31.7995 15.4046 32.2669 14.9373 32.2669 14.3629V13.2272C32.2669 12.6528 31.7996 12.1855 31.2252 12.1855H30.0894C29.5447 12.1855 29.097 12.606 29.0522 13.1394H26.4316C26.2768 13.1394 26.1282 13.201 26.0187 13.3105L24.2154 15.1138H13.3907C13.0681 15.1138 12.8066 15.3753 12.8066 15.6978C12.8066 16.0203 13.0681 16.2818 13.3907 16.2818H24.4574C24.6122 16.2818 24.7608 16.2203 24.8703 16.1108L26.6736 14.3075H29.0478V14.363C29.0478 14.9373 29.5151 15.4046 30.0894 15.4046V15.4046ZM30.2158 13.3534H31.0989V14.2365H30.2158V13.3534Z" fill="#0096D6"/>
<path d="M32.8978 19.3404H31.7621C31.1932 19.3404 30.73 19.7991 30.7212 20.366H28.3506L26.5473 18.5627C26.4378 18.4531 26.2892 18.3916 26.1343 18.3916H15.3145C14.992 18.3916 14.7305 18.6531 14.7305 18.9756C14.7305 19.2981 14.992 19.5596 15.3145 19.5596H25.8924L27.6957 21.3629C27.8052 21.4725 27.9537 21.534 28.1086 21.534H30.7211C30.7298 22.1009 31.193 22.5595 31.762 22.5595H32.8977C33.4721 22.5595 33.9394 22.0922 33.9394 21.5179V20.3822C33.9395 19.8077 33.4722 19.3404 32.8978 19.3404V19.3404ZM32.7715 21.3915H31.8884V20.5085H32.7715V21.3915Z" fill="#0096D6"/>
<path d="M21.9634 13.5889C22.286 13.5889 22.5474 13.3275 22.5474 13.0049C22.5474 12.6824 22.286 12.4209 21.9634 12.4209H13.98C13.6575 12.4209 13.396 12.6824 13.396 13.0049C13.396 13.3275 13.6575 13.5889 13.98 13.5889H21.9634Z" fill="#0096D6"/>
</svg>
