<svg width="25" height="25" viewBox="0 0 25 25" fill="none" xmlns="http://www.w3.org/2000/svg">
<path d="M11.4426 25C13.3291 25 14.9073 23.6551 15.2697 21.875H7.61548C7.97807 23.6551 9.55621 25 11.4426 25Z" fill="#73818F"/>
<path d="M18.7467 12.4987C18.7425 12.4987 18.7383 12.4996 18.7341 12.4996C14.7144 12.4996 11.4425 9.2287 11.4425 5.20801C11.4425 4.1027 11.6968 3.05785 12.1395 2.11829C11.9102 2.09655 11.6779 2.08301 11.4425 2.08301C7.41553 2.08301 4.15092 5.34743 4.15092 9.37461V12.2787C4.15092 14.3402 3.24779 16.2861 1.66335 17.6256C1.13521 18.0767 0.900795 18.7954 1.09039 19.4965C1.31126 20.3121 2.11749 20.833 2.9634 20.833H19.9165C20.804 20.833 21.6405 20.2579 21.8206 19.3882C21.9602 18.7153 21.7206 18.0433 21.1988 17.6048C19.6842 16.3351 18.8081 14.4693 18.7467 12.4987Z" fill="#73818F"/>
<path d="M23.9426 5.2084C23.9426 8.08487 21.6109 10.4166 18.7342 10.4166C15.8577 10.4166 13.526 8.08487 13.526 5.2084C13.526 2.33192 15.8577 0 18.7342 0C21.6109 0 23.9426 2.33192 23.9426 5.2084Z" fill="#D91818"/>
</svg>
