<svg width="25" height="25" viewBox="0 0 25 25" fill="none" xmlns="http://www.w3.org/2000/svg">
<path fill-rule="evenodd" clip-rule="evenodd" d="M12.5 0C5.60547 0 0 5.60547 0 12.5C0 19.3945 5.60547 25 12.5 25C19.3945 25 25 19.3945 25 12.5C25 5.60547 19.3945 0 12.5 0Z" fill="#4BAE4F"/>
<path fill-rule="evenodd" clip-rule="evenodd" d="M18.5449 8.28638C18.8477 8.58911 18.8477 9.08716 18.5449 9.38989L11.2207 16.7141C11.0693 16.8655 10.8691 16.9436 10.6689 16.9436C10.4688 16.9436 10.2686 16.8655 10.1172 16.7141L6.45508 13.052C6.15234 12.7493 6.15234 12.2512 6.45508 11.9485C6.75781 11.6458 7.25586 11.6458 7.55859 11.9485L10.6689 15.0588L17.4414 8.28638C17.7441 7.97876 18.2422 7.97876 18.5449 8.28638Z" fill="white"/>
</svg>
