<svg xmlns="http://www.w3.org/2000/svg" width="30" height="30" viewBox="0 0 30 30">
  <g id="top" transform="translate(-283.007 -843.751)">
    <g id="baseline-autorenew-24px" transform="translate(283.007 849.007)">
      <path id="Caminho_165" data-name="Caminho 165" d="M0,0H22.986V22.986H0Z" fill="none"/>
    </g>
    <g id="icon_recycle" data-name="icon recycle" transform="translate(283.007 843.751)">
      <path id="Caminho_4651" data-name="Caminho 4651" d="M15,0A15,15,0,1,1,0,15,15,15,0,0,1,15,0Z" fill="#84d03f"/>
      <g id="RECYCLE" transform="translate(5.293 5.954)">
        <path id="Caminho_4652" data-name="Caminho 4652" d="M39.186,25.862h0l2.505,1.445a.552.552,0,0,0,.277.075.563.563,0,0,0,.145-.02.552.552,0,0,0,.337-.259l1.318-2.283,1.092,1.891a.324.324,0,0,1-.118.442l-.239.137a.344.344,0,0,0,.122.638l3.28.48a.331.331,0,0,0,.05,0,.344.344,0,0,0,.319-.216l1.22-3.079A.344.344,0,0,0,49,24.692l-.236.136a.324.324,0,0,1-.442-.118l-2.1-3.63a1.215,1.215,0,0,0-1.05-.606H41.854a.343.343,0,0,0-.3.172L38.983,25.1A.557.557,0,0,0,39.186,25.862Zm6.449-4.437,2.1,3.629a1.011,1.011,0,0,0,.849.5l-.844,2.131-2.269-.332a1.01,1.01,0,0,0-.011-.99l-1.387-2.4a.005.005,0,0,0,0,0l-1.617-2.8H45.18a.527.527,0,0,1,.455.262Zm-3.781.081,1.518,2.628-1.45,2.513-2.277-1.314Z" transform="translate(-34.628 -20.474)" fill="#fff"/>
        <path id="Caminho_4653" data-name="Caminho 4653" d="M24.375,59.5H21.739l1.092-1.891a.324.324,0,0,1,.442-.118l.239.137A.343.343,0,0,0,24,57.208L22.8,54.134a.344.344,0,0,0-.368-.214l-3.293.476a.343.343,0,0,0-.123.637l.235.136a.323.323,0,0,1,.118.442L17.27,59.241a1.215,1.215,0,0,0,0,1.213l1.663,2.881a.344.344,0,0,0,.3.172h5.146a.556.556,0,0,0,.556-.556V60.059A.556.556,0,0,0,24.375,59.5Zm-6.511.082,2.1-3.629a1,1,0,0,0,.1-.767,1.023,1.023,0,0,0-.087-.219l2.281-.329.835,2.125a1.012,1.012,0,0,0-.854.5l-1.387,2.4,0,0-1.615,2.8L17.865,60.11a.526.526,0,0,1,0-.525Zm1.961,3.234,1.517-2.628h2.9v2.629Z" transform="translate(-17.108 -47.351)" fill="#fff"/>
        <path id="Caminho_4654" data-name="Caminho 4654" d="M69.836,63.853,67.264,59.4a.556.556,0,0,0-.76-.2L64,60.639a.556.556,0,0,0-.2.759l1.319,2.283H62.931a.324.324,0,0,1-.323-.324v-.276A.344.344,0,0,0,62,62.869l-2.058,2.6a.343.343,0,0,0,0,.427L62,68.492a.344.344,0,0,0,.613-.214v-.271a.324.324,0,0,1,.323-.324h4.191a1.215,1.215,0,0,0,1.05-.606L69.836,64.2a.343.343,0,0,0,0-.344Zm-3.1-4,2.21,3.828H65.909l-1.451-2.513Zm.844,6.88a.527.527,0,0,1-.455.263H62.932a1.011,1.011,0,0,0-.862.483l-1.425-1.8,1.424-1.8a1.011,1.011,0,0,0,.863.485h6.012Z" transform="translate(-51.468 -51.531)" fill="#fff"/>
      </g>
    </g>
  </g>
</svg>
